<?xml version="1.0" standalone="no"?>
<!DOCTYPE svg PUBLIC "-//W3C//DTD SVG 20010904//EN"
 "http://www.w3.org/TR/2001/REC-SVG-20010904/DTD/svg10.dtd">
<svg version="1.0" xmlns="http://www.w3.org/2000/svg"
 width="700.000000pt" height="700.000000pt" viewBox="0 0 700.000000 700.000000"
 preserveAspectRatio="xMidYMid meet">
<metadata>
Created by potrace 1.11, written by Peter Selinger 2001-2013
</metadata>
<g transform="translate(0.000000,700.000000) scale(0.100000,-0.100000)"
fill="#000000" stroke="none">
<path d="M3480 6365 c-12 -28 -30 -70 -40 -95 -11 -25 -78 -189 -150 -365 -71
-176 -143 -351 -160 -390 -30 -71 -208 -505 -285 -695 -119 -293 -778 -1899
-791 -1927 -8 -17 -14 -34 -14 -37 0 -3 -9 -25 -20 -49 -10 -23 -29 -67 -40
-97 -12 -30 -28 -68 -35 -85 -7 -16 -54 -131 -105 -255 -50 -124 -98 -239
-106 -257 -7 -17 -14 -34 -14 -38 0 -3 -9 -25 -19 -48 -10 -23 -49 -116 -85
-207 -37 -91 -71 -174 -76 -185 -10 -21 -31 -73 -106 -257 -25 -62 -52 -126
-59 -143 -8 -16 -25 -58 -38 -91 l-25 -62 103 -102 c115 -115 99 -110 215 -57
88 40 118 54 315 140 94 41 482 213 863 381 l692 306 43 -19 c37 -17 546 -242
1584 -700 188 -83 346 -151 350 -151 5 0 54 46 110 103 l101 102 -89 215 c-49
118 -93 224 -98 235 -5 11 -64 155 -131 320 -67 165 -132 325 -145 355 -13 30
-53 129 -90 220 -37 91 -90 219 -117 285 -27 66 -53 129 -58 140 -5 11 -55
133 -111 270 -149 365 -227 556 -356 870 -63 154 -130 316 -148 360 -32 79
-232 568 -327 800 -27 66 -53 129 -58 140 -5 11 -50 121 -100 245 -50 124 -96
234 -101 245 -5 11 -65 157 -133 325 l-125 305 -21 -50z"/>
</g>
</svg>
